<svg xmlns="http://www.w3.org/2000/svg" width="50" height="50" viewBox="0 0 50 50"><g fill="none" fill-rule="evenodd" transform="translate(.002 9)"><path fill="#BEE3FC" d="M49.995 9.236l-.002 17.346c0 2.784-10.78 5.051-24.231 5.134l-.764.002c-13.805 0-24.996-2.3-24.996-5.136L0 9.236c3.994 2.586 13.535 3.969 24.998 3.969 11.462 0 21.004-1.383 24.997-3.97z"/><path fill="#000" d="M49.995 9.235l-.003 17.347c0 1.831-4.664 3.439-11.684 4.348 0-4.348-.015-11.903-.015-18.461 5.027-.626 9.015-1.645 11.366-3.027l.336-.207z" opacity=".303"/><ellipse cx="24.999" cy="5.136" fill="#BEE3FC" stroke="#282828" stroke-width="1.5" rx="25.746" ry="5.886"/></g></svg>